<svg width="2774" height="3570.5" version="1.1" viewBox="0 0 2774 3570.5" xmlns="http://www.w3.org/2000/svg">
 <path d="m1615.1 629.09c-75.107-174.56-237.91-221.74-422.68-237.02l-130.36-0.9875c-196.24 26.728-292.29 127.06-360.47 247.88-219.92 401.18-180.52 659.74-202.45 952.03-9.0229 47.436-25.817 68.228-43.947 84.438l209.86 821.17 748.59-426.63 1.9752-1205.8c12.729-99.605 73.578-180.19 199.49-235.04z" fill="none" stroke="#000" stroke-linecap="round" stroke-linejoin="round" stroke-width="72"/>
 <path d="m302.82 1730.1c-74.558-12.292-135.46-44.641-150.84-143.85 3.5906-545.02 102.26-1000.6 368.58-1293.4 112.9-111.55 208.03-229.52 555.36-256.31l104-0.5418c392.77 34.585 708.4 170.29 790.15 586.24 95.608 37.617 148.74 94.947 189.59 169.69l138.27-0.6983c40.731 398.3 182.36 722.02 342.88 1031.8 39.907 87.451 94.282 170.7 96.219 269.18l0.9876 764.88c-30.608 337.46-303.23 416.86-444.41 416.76-122.98 230.78-228.91 252.18-333.8 260.72l-1467-29.274c-129.32-13.599-154.95-123.49-190.01-231.35l-266.75-1.5786 1.4814-289.36 229.61-0.4938 0.49379-72.587c55.628-208.23 153.71-262.55 250.32-322.23z" fill="none" stroke="#000" stroke-linecap="round" stroke-linejoin="round" stroke-width="72"/>
</svg>
