<svg width="1024" height="1024" version="1.1" viewBox="0 0 270.93 270.93" xmlns="http://www.w3.org/2000/svg">
 <g transform="translate(0 -26.067)">
  <path d="m41.647 60.923c-0.16091-0.0049-0.3219-0.0046-0.48266 5.16e-4 -3.7594 0.1198-7.4028 2.951-7.4047 7.5701v15.415c4.78e-4 1.7469 0.60568 3.4394 1.7126 4.7909 1.1492 1.4035 2.4906 2.7848 5.8508 6.0007 3.3603 3.2159 7.922 8.3682 9.6805 15.465 0.11111 0.4484 0.22892 0.88191 0.35295 1.3012 7.1978-2.7948 14.952-4.4932 23.065-4.8793 1.2525-0.0596 2.4993-0.0878 3.7398-0.0842 9.6449 0.0274 18.906 1.9418 27.409 5.4059 0.16068-0.50776 0.31306-1.0358 0.45475-1.589 1.8041-7.0443 6.3672-12.197 9.7508-15.432 3.3836-3.235 4.7594-4.6574 5.9345-6.1082 1.0916-1.347 1.687-3.0282 1.6872-4.762v-15.524c-2e-3 -4.2647-3.5263-7.6847-7.7892-7.5582-2.4333 0.07165-4.6834 1.3097-6.0462 3.3269-12.51 18.537-23.931 25.915-32.62 25.913-8.6883-0.002399-18.682-7.0255-29.027-25.393-1.455-2.581-3.8542-3.7862-6.2678-3.8592zm36.136 53.139c-1.2406-4e-3 -2.4874 0.0246-3.7398 0.0842-40.079 1.9074-71.403 35.818-70.131 75.921 1.2719 40.104 34.682 71.96 74.801 71.324 40.119-0.63602 72.502-33.536 72.502-73.66a9.526 9.526 0 0 0-0.26356-2.3203 9.526 9.526 0 0 0 0.11524-2.3477c-2.463-38.792-34.826-68.893-73.283-69.002zm-0.04444 19.048c28.671 0.0627 52.478 22.22 54.316 51.161a9.526 9.526 0 0 0 0.25219 1.7224 9.526 9.526 0 0 0-0.14108 1.7384c0 29.935-23.822 54.139-53.754 54.613-29.932 0.47452-54.51-22.961-55.459-52.881-0.94891-29.92 22.094-54.868 51.996-56.291 0.93442-0.0445 1.8646-0.0656 2.7895-0.0636zm0.10542 7.9768a46.706 46.706 0 0 0-0.96428 4e-3 22.876 22.876 0 0 1-11.631 22.756 22.876 22.876 0 0 1-26.031-2.7549 46.706 46.706 0 0 0-8.306 27.711 22.876 22.876 0 0 1 21.207 10.786l0.72089 1.2588a22.876 22.876 0 0 1-2.2939 24.931 46.706 46.706 0 0 0 26.667 8.599 22.876 22.876 0 0 1 10.483-25.219 22.876 22.876 0 0 1 28.68 4.3837 46.706 46.706 0 0 0 7.8114-26.467 22.876 22.876 0 0 1-22.603-11.321 22.876 22.876 0 0 1 2.5761-26.334 46.706 46.706 0 0 0-26.316-8.3344zm128.53 16.406-53.988 5.2e-4c-0.0818 0-0.16264 4e-3 -0.24391 6e-3 3.5901 7.8978 5.8326 16.556 6.413 25.698a9.526 9.526 0 0 1-0.11524 2.3477 9.526 9.526 0 0 1 0.26354 2.3203c0 10.81-2.3536 21.094-6.5727 30.366 0.085 2e-3 0.1697 6e-3 0.25528 6e-3h53.988c5.2606-3.2e-4 9.5247-4.2649 9.525-9.5255v-41.694c-3.1e-4 -5.2606-4.2644-9.5247-9.525-9.525zm17.84 12.91v33.412h27.901a9.526 9.526 0 0 0 9.5234-9.5234v-14.363a9.526 9.526 0 0 0-9.5234-9.525zm-147.07 4.6349a12.749 12.749 0 0 1 11.316 6.0539l0.40152 0.70176a12.749 12.749 0 0 1-5.0943 17.145 12.749 12.749 0 0 1-17.224-4.8224 12.749 12.749 0 0 1 4.5486-17.297 12.749 12.749 0 0 1 6.0518-1.7808z" style="paint-order:markers stroke fill"/>
 </g>
</svg>
