<?xml version="1.0" encoding="UTF-8" standalone="no"?>
<!-- Created with Inkscape (http://www.inkscape.org/) -->

<svg
   xmlns:dc="http://purl.org/dc/elements/1.1/"
   xmlns:cc="http://creativecommons.org/ns#"
   xmlns:rdf="http://www.w3.org/1999/02/22-rdf-syntax-ns#"
   xmlns:svg="http://www.w3.org/2000/svg"
   xmlns="http://www.w3.org/2000/svg"
   xmlns:sodipodi="http://sodipodi.sourceforge.net/DTD/sodipodi-0.dtd"
   xmlns:inkscape="http://www.inkscape.org/namespaces/inkscape"
   width="1024"
   height="1024"
   viewBox="0 0 270.93333 270.93334"
   version="1.1"
   id="svg1497"
   inkscape:version="0.92.2 5c3e80d, 2017-08-06"
   sodipodi:docname="regulator-ink.svg.svg">
  <defs
     id="defs1491" />
  <sodipodi:namedview
     id="base"
     pagecolor="#ffffff"
     bordercolor="#666666"
     borderopacity="1.0"
     inkscape:pageopacity="0.0"
     inkscape:pageshadow="2"
     inkscape:zoom="0.7"
     inkscape:cx="489.12228"
     inkscape:cy="572.83011"
     inkscape:document-units="mm"
     inkscape:current-layer="layer1"
     showgrid="true"
     units="px"
     showguides="true"
     inkscape:guide-bbox="true"
     inkscape:snap-grids="false"
     inkscape:snap-to-guides="false"
     inkscape:window-width="1870"
     inkscape:window-height="1008"
     inkscape:window-x="50"
     inkscape:window-y="40"
     inkscape:window-maximized="1">
    <inkscape:grid
       type="xygrid"
       id="grid2042"
       empspacing="64" />
    <inkscape:grid
       type="xygrid"
       id="grid2044"
       empspacing="36"
       dotted="true" />
    <sodipodi:guide
       position="135.46667,123.825"
       orientation="1,0"
       id="guide2046"
       inkscape:locked="false" />
    <sodipodi:guide
       position="135.46667,33.866667"
       orientation="0,1"
       id="guide2050"
       inkscape:locked="false" />
    <sodipodi:guide
       position="135.46667,237.06667"
       orientation="0,1"
       id="guide2052"
       inkscape:locked="false" />
    <sodipodi:guide
       position="157.61607,332.99703"
       orientation="0,1"
       id="guide2103"
       inkscape:locked="false" />
    <sodipodi:guide
       position="200.70535,146.27679"
       orientation="1,0"
       id="guide2197"
       inkscape:locked="false" />
    <sodipodi:guide
       position="211.66666,119.44048"
       orientation="0,1"
       id="guide2199"
       inkscape:locked="false" />
  </sodipodi:namedview>
  <metadata
     id="metadata1494">
    <rdf:RDF>
      <cc:Work
         rdf:about="">
        <dc:format>image/svg+xml</dc:format>
        <dc:type
           rdf:resource="http://purl.org/dc/dcmitype/StillImage" />
        <dc:title></dc:title>
      </cc:Work>
    </rdf:RDF>
  </metadata>
  <g
     inkscape:label="Calque 1"
     inkscape:groupmode="layer"
     id="layer1"
     transform="translate(0,-26.06665)">
    <path
       style="opacity:1;fill:#000000;fill-opacity:1;stroke:none;stroke-width:24.01997948;stroke-linecap:round;stroke-linejoin:round;stroke-miterlimit:4;stroke-dasharray:none;stroke-opacity:1;paint-order:markers stroke fill"
       d="m 41.647216,60.922994 c -0.160909,-0.0049 -0.321897,-0.0046 -0.482655,5.16e-4 -3.759364,0.119796 -7.402753,2.951031 -7.404716,7.570081 v 15.41508 c 4.78e-4,1.746906 0.605676,3.439435 1.712555,4.790922 1.149194,1.403503 2.490554,2.784782 5.850805,6.000668 3.360253,3.215888 7.92199,8.368189 9.680549,15.464689 0.111106,0.4484 0.228917,0.88191 0.352948,1.30122 7.197794,-2.79477 14.951747,-4.49318 23.064743,-4.87929 1.252458,-0.0596 2.499251,-0.0878 3.739821,-0.0842 9.644859,0.0274 18.906006,1.94176 27.408664,5.40587 0.16068,-0.50776 0.31306,-1.03579 0.45475,-1.58905 1.80413,-7.04429 6.36724,-12.196583 9.75083,-15.431625 3.38361,-3.235037 4.75938,-4.657368 5.93452,-6.108155 1.09157,-1.346999 1.687,-3.028217 1.68724,-4.761981 V 68.493591 c -0.002,-4.264726 -3.52634,-7.684732 -7.78919,-7.558196 -2.4333,0.07165 -4.68345,1.309709 -6.04615,3.326929 C 97.052098,82.799427 85.630544,90.177463 76.94222,90.174954 68.253888,90.172555 58.260073,83.149481 47.915053,64.782188 46.46008,62.201159 44.060862,60.996004 41.647216,60.922994 Z m 36.136297,53.139396 c -1.24057,-0.004 -2.487366,0.0246 -3.739825,0.0842 -40.078611,1.90742 -71.4029914,35.81765 -70.1311177,75.92147 1.2718737,40.10381 34.6816587,71.96033 74.8006007,71.32432 40.118949,-0.63602 72.502039,-33.53611 72.502039,-73.6601 a 9.5259519,9.5259519 0 0 0 -0.26356,-2.32027 9.5259519,9.5259519 0 0 0 0.11524,-2.34766 c -2.46301,-38.792 -34.82567,-68.89272 -73.283377,-69.00199 z m -0.04444,19.04793 c 28.671137,0.0627 52.478467,22.21959 54.316057,51.16122 a 9.5259519,9.5259519 0 0 0 0.25219,1.72238 9.5259519,9.5259519 0 0 0 -0.14108,1.73839 c 0,29.93539 -23.8222,54.13869 -53.753824,54.6132 -29.931627,0.47452 -54.509719,-22.96065 -55.458629,-52.881 -0.94891,-29.92034 22.094245,-54.86757 51.995792,-56.29062 0.934423,-0.0445 1.864619,-0.0656 2.789494,-0.0636 z m 0.10542,7.97678 a 46.705519,46.705519 0 0 0 -0.964281,0.004 22.876169,22.876169 0 0 1 -11.630816,22.75572 22.876169,22.876169 0 0 1 -26.031486,-2.75487 46.705519,46.705519 0 0 0 -8.305951,27.71149 22.876169,22.876169 0 0 1 21.207489,10.78642 l 0.720886,1.25884 a 22.876169,22.876169 0 0 1 -2.293916,24.93077 46.705519,46.705519 0 0 0 26.667105,8.59896 22.876169,22.876169 0 0 1 10.483083,-25.21861 22.876169,22.876169 0 0 1 28.679904,4.38371 46.705519,46.705519 0 0 0 7.81141,-26.4666 22.876169,22.876169 0 0 1 -22.60328,-11.32076 22.876169,22.876169 0 0 1 2.57607,-26.33431 46.705519,46.705519 0 0 0 -26.316217,-8.33437 z m 128.525487,16.40623 -53.98844,5.2e-4 c -0.0818,0 -0.16264,0.004 -0.24391,0.006 3.59008,7.89781 5.83258,16.55616 6.41305,25.69817 a 9.5259519,9.5259519 0 0 1 -0.11524,2.34766 9.5259519,9.5259519 0 0 1 0.26354,2.32028 c 0,10.81005 -2.35365,21.0939 -6.57272,30.36558 0.085,0.002 0.1697,0.006 0.25528,0.006 h 53.98844 c 5.2606,-3.2e-4 9.52469,-4.26492 9.525,-9.52552 v -41.69358 c -3.1e-4,-5.2606 -4.2644,-9.52469 -9.525,-9.525 z m 17.84025,12.91032 v 33.41192 h 27.90062 a 9.5259519,9.5259519 0 0 0 9.52345,-9.52345 v -14.36347 a 9.5259519,9.5259519 0 0 0 -9.52345,-9.525 z m -147.069055,4.63486 a 12.7487,12.7487 0 0 1 11.316108,6.0539 l 0.401523,0.70176 a 12.7487,12.7487 0 0 1 -5.094261,17.14469 12.7487,12.7487 0 0 1 -17.223755,-4.82244 12.7487,12.7487 0 0 1 4.54856,-17.29714 12.7487,12.7487 0 0 1 6.051825,-1.78077 z"
       id="path2180"
       inkscape:connector-curvature="0" />
  </g>
</svg>
