<svg width="1024" height="1024" version="1.1" viewBox="0 0 270.93 270.93" xmlns="http://www.w3.org/2000/svg">
 <g transform="translate(0 -26.067)">
  <path transform="matrix(.26458 0 0 .26458 0 26.067)" d="m511.73 63.711c-65.761 0-119.85 54.085-119.85 119.85 0 47.365 28.059 88.664 68.328 108.07v18.232c-98.702 21.873-174.46 102.79-174.46 202.14v476a36.004 36.004 0 0 0 36 36h384a36.004 36.004 0 0 0 36-36v-476c4e-5 -99.355-75.76-180.27-174.46-202.14v-20.279c38.091-20.16 64.285-60.257 64.285-106.02 0-65.761-54.083-119.85-119.84-119.85zm-256.21 31.779v77.654h39.451v26.518h-39.451v77.656h80.867l35.924-54.883h15.807c-4.2564-12.231-6.584-25.333-6.584-38.941 0-11.448 1.6426-22.542 4.6973-33.059h-13.92l-35.965-54.945h-80.826zm256.21 40.217c26.849 0 47.842 21 47.842 47.85s-20.993 47.842-47.842 47.842c-26.849 0-47.842-20.993-47.842-47.842s20.993-47.85 47.842-47.85zm122.24 14.875c3.0389 10.492 4.6738 21.557 4.6738 32.975 0 13.642-2.3444 26.772-6.6211 39.029h43.77a36.004 36.004 0 1 0 0-72.004h-41.822zm-120.22 225.42c88.61 0 156 62.725 156 136v440h-312v-440c0-73.275 67.39-136 156-136z" color="#000000" color-rendering="auto" dominant-baseline="auto" image-rendering="auto" shape-rendering="auto" solid-color="#000000" style="font-feature-settings:normal;font-variant-alternates:normal;font-variant-caps:normal;font-variant-ligatures:normal;font-variant-numeric:normal;font-variant-position:normal;isolation:auto;mix-blend-mode:normal;paint-order:markers stroke fill;shape-padding:0;text-decoration-color:#000000;text-decoration-line:none;text-decoration-style:solid;text-indent:0;text-orientation:mixed;text-transform:none;white-space:normal"/>
 </g>
</svg>
